<?xml version="1.0" standalone="no"?>
<!DOCTYPE svg PUBLIC "-//W3C//DTD SVG 20010904//EN"
 "http://www.w3.org/TR/2001/REC-SVG-20010904/DTD/svg10.dtd">
<svg version="1.0" xmlns="http://www.w3.org/2000/svg"
 width="267.000000pt" height="267.000000pt" viewBox="0 0 267.000000 267.000000"
 preserveAspectRatio="xMidYMid meet">
<metadata>
Created by potrace 1.11, written by Peter Selinger 2001-2013
</metadata>
<g transform="translate(0.000000,267.000000) scale(0.100000,-0.100000)"
fill="#000000" stroke="none">
<path d="M0 1335 l0 -1335 1335 0 1335 0 0 1335 0 1335 -1335 0 -1335 0 0
-1335z m1256 1042 c16 -15 32 -27 36 -27 12 0 72 -99 96 -159 19 -47 22 -72
22 -195 -1 -77 -7 -171 -14 -208 -10 -54 -10 -65 0 -61 7 3 16 12 19 21 3 10
22 36 43 59 20 23 55 63 77 90 22 26 84 91 138 144 115 113 235 184 328 195
63 7 162 -24 179 -57 6 -10 16 -19 23 -19 17 -1 60 -65 88 -135 34 -84 34
-220 2 -283 -13 -23 -23 -49 -23 -56 0 -7 -10 -24 -22 -37 -13 -14 -34 -38
-48 -54 -33 -39 -135 -125 -148 -125 -6 0 -33 -16 -62 -35 -29 -19 -64 -38
-79 -41 -14 -4 -42 -15 -61 -25 -61 -32 -143 -61 -195 -68 -48 -7 -49 -8 -20
-16 17 -4 56 -21 89 -36 32 -16 63 -29 70 -29 10 0 96 -54 134 -85 70 -56 82
-68 82 -81 0 -8 4 -14 9 -14 5 0 24 -24 42 -52 31 -49 33 -59 33 -138 0 -61
-4 -94 -16 -115 -19 -33 -98 -116 -149 -156 -45 -34 -228 -128 -270 -139 -19
-4 -77 -20 -129 -34 -125 -34 -283 -48 -413 -36 -125 12 -259 36 -305 56 -19
8 -42 14 -52 14 -20 0 -106 46 -134 72 -11 10 -25 18 -31 18 -6 0 -36 24 -66
53 -30 28 -74 69 -98 89 -75 63 -96 154 -62 267 18 59 28 75 69 109 46 39 96
64 153 76 14 3 37 16 52 28 33 29 93 60 177 92 36 14 66 31 68 39 2 7 -6 54
-17 103 -43 193 -52 471 -21 624 24 116 63 212 100 245 12 11 26 30 31 42 8
21 52 56 123 96 45 26 115 18 152 -16z"/>
<path d="M1137 2278 c-91 -19 -136 -69 -181 -202 -56 -160 -70 -338 -40 -484
18 -90 57 -205 81 -241 l17 -26 22 90 c13 50 27 113 33 140 5 28 15 63 21 79
9 26 13 28 25 15 13 -13 13 -32 5 -124 -6 -61 -13 -120 -16 -133 -4 -20 -2
-21 15 -10 10 6 26 25 35 42 9 17 29 49 45 71 79 110 121 282 121 495 0 139
-2 154 -24 198 -40 80 -87 106 -159 90z"/>
<path d="M1965 2143 c-47 -10 -152 -73 -221 -132 -41 -35 -74 -67 -74 -71 0
-4 -21 -29 -46 -56 -64 -69 -83 -90 -145 -164 -30 -36 -57 -66 -61 -68 -5 -2
-8 -9 -8 -16 0 -6 -20 -34 -45 -63 -25 -28 -45 -54 -45 -58 0 -4 -18 -27 -40
-51 -49 -53 -51 -70 -7 -49 118 59 190 87 181 73 -21 -33 -72 -82 -99 -94 -16
-7 -43 -24 -59 -37 l-30 -24 100 18 c54 10 131 23 169 29 108 17 344 95 395
130 14 10 44 27 67 38 61 31 166 139 193 197 13 30 24 78 27 121 6 74 7 70
-49 189 -14 29 -82 73 -131 85 -23 5 -44 9 -47 9 -3 -1 -14 -3 -25 -6z"/>
<path d="M1100 1225 c-104 -12 -201 -39 -270 -75 -19 -10 -49 -23 -67 -30 -18
-7 -37 -18 -44 -26 -8 -10 -3 -9 21 2 42 21 144 29 195 15 24 -6 58 -29 86
-56 43 -41 47 -51 57 -114 14 -94 -2 -222 -34 -276 -67 -115 -210 -153 -344
-91 -68 31 -69 31 -13 -8 29 -20 58 -36 64 -36 7 0 40 -11 73 -24 34 -13 111
-34 171 -46 92 -19 132 -22 245 -17 124 4 146 8 265 46 72 23 166 59 210 81
44 22 85 40 92 40 6 0 18 6 25 13 7 6 39 32 71 56 87 66 107 101 107 184 0 67
-1 68 -47 120 -27 28 -59 61 -73 72 -14 11 -32 28 -42 37 -18 18 -139 78 -209
104 -50 18 -272 44 -369 42 -36 0 -112 -6 -170 -13z"/>
<path d="M588 993 c-78 -80 -98 -184 -54 -272 28 -54 73 -111 88 -111 5 0 -2
14 -16 31 -40 47 -53 78 -60 144 -10 87 5 147 48 200 45 55 43 58 -6 8z"/>
<path d="M810 978 c-40 -44 -19 -108 40 -123 38 -9 80 33 80 78 0 61 -78 90
-120 45z"/>
</g>
</svg>
