<svg id="SvgjsSvg1056" width="360" height="275" xmlns="http://www.w3.org/2000/svg" version="1.1" xmlns:xlink="http://www.w3.org/1999/xlink" xmlns:svgjs="http://svgjs.com/svgjs"><rect id="SvgjsRect1062" width="360" height="275" x="0" y="0" fill="#ff2d00"></rect><defs id="SvgjsDefs1057"><svg width="50px" height="50px" xmlns="http://www.w3.org/2000/svg" xmlns:xlink="http://www.w3.org/1999/xlink" version="1.1" preserveAspectRatio="none" x="0px" y="0px" viewBox="0 0 100 100" id="a1481040713752"><defs><g id="a"><path old_fill="#000000" old_stroke="none" d=" M -2.15 -39.1 Q -8.6 -45.2 -16.3 -33.9 -19.6 -29.05 -19.95 -18.1 -20.25 -10.35 -19.15 -3.15 -18.1 2.95 -17.3 5.15 -24.25 7.1 -29.2 10.85 -29.75 11.2 -30.3 11.6 -34.8 12 -37.35 15.1 -39.4 17.65 -39.9 21.9 -40.15 23.9 -38.55 26.7 -36.95 29.55 -34.1 30.8 -34 30.95 -33.85 31.1 -29.4 36.85 -19.3 39.65 L -12.1 40.8 Q 4.45 42.8 17.95 36.25 30.2 30.3 31.1 22.7 31.4 20 29.25 16.5 26.85 12.6 22.4 9.55 16.2 5.35 8 3.85 16 3.4 26.05 -2 39.95 -9.45 39.95 -20.4 39.95 -23.7 38.2 -27.25 36.2 -31.4 32.85 -33.1 23.7 -37.75 10.05 -22.15 6.45 -18 0.5 -10.65 0.75 -11.45 1 -12.3 1.85 -15.1 2.3 -18.85 2.55 -21.2 2.85 -25.85 3.05 -28.85 1.7 -32.65 0.25 -36.8 -2.15 -39.1 M -6.45 -37.25 Q -2.45 -37.25 -0.65 -31.9 0.45 -28.7 0.15 -23 -0.15 -17.35 -1.65 -11.4 -3.1 -5.9 -9.9 2.6 -9.9 1.35 -9.9 1.25 -9.9 -0.55 -9.5 -3.75 -9.15 -6.95 -9.15 -8.15 L -9 -9.6 Q -9.15 -10.3 -9.3 -10.45 L -11.3 -3.35 Q -11.55 -2.25 -12.1 0.55 -12.5 2.45 -12.6 3.3 -14.75 2.05 -16.05 -2.15 -17.95 -7.95 -18.1 -13.55 -18.3 -19.2 -16.95 -25.25 -14.2 -37.25 -6.45 -37.25 M 27.1 -31.4 Q 32.5 -31.4 35.2 -26.5 36.95 -23.35 36.95 -20.45 36.95 -7.25 14 -0.45 8.6 1.15 -5.5 3.1 -4.4 2.45 -2.95 1.6 3.15 -2.05 4.05 -3.6 -1.2 -1.25 -4.4 0.25 -5.5 0.75 -6.35 1.2 -4.5 -0.9 -2.55 -3.45 4.45 -12.6 4.7 -12.9 13.35 -22.9 14 -23.55 21.85 -31.4 27.1 -31.4 M 3.95 5.85 Q 16.05 6.9 23.25 13.25 29 18.35 28.5 22.35 27.7 29.25 13.6 35 -0.45 40.85 -11.2 38.9 L -18.7 37.5 Q -26.75 35.15 -30.8 31 -31.25 30.5 -31.7 29.95 -34.8 26.2 -34.35 22.35 -33.6 16.15 -24.15 10.85 -12.6 4.35 3.95 5.85 M -10.7 23.5 Q -9.95 17.25 -12.9 14 -15.55 11.25 -20.05 11.55 -24.35 11.75 -27.8 14.6 -31.55 17.6 -32.05 21.8 -32.35 24.65 -31.05 27.7 -28.8 33.1 -22.25 33.85 -15.2 34.7 -12.3 29.3 -11.35 27.6 -10.9 25.5 -10.7 23.6 -10.7 23.5 M -16.55 20.85 Q -17.6 22.75 -19.65 22.5 -21.4 22.3 -22.35 20.9 -23.1 19.8 -22.95 18.95 -22.5 15 -19.05 15.45 -15.55 15.9 -15.9 18.75 -16.05 19.9 -16.55 20.85 Z"></path></g></defs><g transform="matrix( 1.090911865234375, 0, 0, 1.090911865234375, 50,50) "><g transform="matrix( 1, 0, 0, 1, 0,0) "><use xlink:href="#a"></use></g></g></svg><!--?xml version="1.0"?-->
<svg width="149.682px" height="138px" id="t1481040713752"><path fill="#ffffff" d="M18.128,42.856l0.264-1.056l2.288,2.376c-0.088,0.44-0.176,0.792-0.176,1.056z M17.952,45.232l0-1.056l0-0.264l2.464,2.464l0,1.32z M19.712,39.512l0.704-0.704l2.112,2.2l-0.616,0.704z M26.048,36.96l1.848,1.848l-0.176,0c-0.44,0-0.792,0.088-1.144,0.088l-1.848-1.848c0.088-0.088,0.264-0.088,0.528-0.088l0.792,0z M33.264,29.48l0,1.144l-1.144-1.144l1.144,0z M19.184,40.216l2.288,2.2c-0.264,0.352-0.352,0.616-0.44,0.88l-2.288-2.288c0.264-0.264,0.176-0.528,0.44-0.792z M33.264,38.104l-2.464-2.464l0-1.32l2.464,2.464l0,1.32z M33.264,35.552l-2.464-2.464l0-1.32l2.464,2.464l0,1.32z M30.8,30.624l0-1.144l0.176,0l2.288,2.288l0,1.32z M21.824,37.84l2.112,2.024l-0.792,0.528l-2.112-2.112c0.352-0.264,0.616-0.352,0.792-0.44z M23.672,37.136l1.936,2.024c-0.264,0.088-0.616,0.088-0.88,0.352l-2.024-2.024c0.176-0.088,0.528-0.264,0.968-0.352z M28.512,36.96l1.848,1.848l-1.32,0l-1.848-1.848l1.32,0z M30.8,36.784l2.024,2.024l-1.32,0l-1.848-1.848l1.144,0l0-0.176z M20.416,82.632l-2.464-2.464l0-1.32l2.464,2.464l0,1.32z M17.952,73.832l2.464,2.464l0,1.32l-2.464-2.464l0-1.32z M17.952,76.296l2.464,2.464l0,1.32l-2.464-2.464l0-1.32z M17.952,71.368l2.464,2.464l0,1.32l-2.464-2.464l0-1.32z M17.952,68.816l2.464,2.464l0,1.32l-2.464-2.464l0-1.32z M33.264,52.712l0,0.352l-0.264-0.352l0.264,0z M20.504,58.872l-0.088,0l0,1.32l-2.464-2.464l0-0.704l0.704,0z M17.952,66.352l2.464,2.464l0,1.32l-2.464-2.464l0-1.32z M30.8,53.064l0-0.352l0.968,0l1.496,1.496l0,1.32z M29.128,58.872l-1.848-1.848l1.32,0l1.848,1.848l-1.32,0z M26.664,58.872l-1.848-1.848l1.32,0l1.848,1.848l-1.32,0z M17.952,63.888l2.464,2.464l0,1.32l-2.464-2.464l0-1.32z M33.264,57.992l-2.464-2.464l0-1.32l2.464,2.464l0,1.32z M29.832,57.024l0.968,0l0-0.264l2.2,2.112l-1.32,0z M17.952,61.336l2.464,2.464l0,1.32l-2.464-2.464l0-1.32z M17.952,58.872l2.464,2.464l0,1.32l-2.464-2.464l0-1.32z M21.648,58.872l-1.848-1.848l1.32,0l1.848,1.848l-1.32,0z M24.2,58.872l-1.848-1.848l1.32,0l1.848,1.848l-1.32,0z M7.216,89.232l0-0.088l1.144,0l1.848,1.848l-1.232,0z M11.44,90.992l-1.848-1.848l1.32,0l1.848,1.848l-1.32,0z M7.744,90.992l-0.968,0l0.176-0.88z M23.056,86.328l0.704,0.792l0.44,1.672l-2.464-2.464l1.32,0z M22.352,89.144l-0.352-1.32l2.64,2.552l0.176,0.616l-0.968,0l-1.76-1.848l0.264,0z M18.92,90.992l-1.848-1.848l1.32,0l1.848,1.848l-1.32,0z M21.384,90.992l-1.848-1.848l1.32,0l1.848,1.848l-1.32,0z M16.368,90.992l-1.76-1.848l1.232,0l1.848,1.848l-1.32,0z M13.904,90.992l-1.848-1.848l1.32,0l1.848,1.848l-1.32,0z M3.08,88l1.232-4.752l3.08,0l0-24.376l-0.616,0l0-1.232l0.616,0.616l0-1.144l0-0.088l0-1.232l-4.312,0l0-6.16l4.312,0l0-6.6c0-4.488,1.672-8.624,4.84-11.792s7.304-4.84,11.792-4.84l5.544,0l0,9.328l-5.544,0c-4.136,0-7.304,3.168-7.304,7.304l0,6.6l1.232,0l0-0.704l0.792,0.704l1.144,0l-1.936-1.936l0-1.32l2.464,2.464l0,0.792l9.152,0l0,6.16l-12.848,0l0,27.456l1.936,0l-0.704-0.616l0-1.32l2.464,2.464l0,0.704l-0.264,0l0.968,3.52l-18.04,0z M51.238,88l-18.04,0l1.232-4.752l3.168,0l0-52.184l-3.168,0l-1.232-4.664l13.728,0l0,56.848l1.408,0l-0.176-0.176l0-1.32l1.496,1.496l0.352,0l0.176,0.528l0.44,0.44l0,0.264l-0.264,0z M48.158,69.344l2.464,2.464l0,1.32l-2.464-2.464l0-1.32z M48.158,71.808l2.464,2.464l0,1.32l-2.464-2.464l0-1.32z M48.158,66.792l2.464,2.464l0,1.32l-2.464-2.464l0-1.32z M48.158,61.864l2.464,2.464l0,1.32l-2.464-2.464l0-1.32z M48.158,59.312l2.464,2.464l0,1.32l-2.464-2.464l0-1.32z M48.158,64.328l2.464,2.464l0,1.32l-2.464-2.464l0-1.32z M49.39,29.48l1.232,0l0,1.232z M48.158,76.824l2.464,2.464l0,1.32l-2.464-2.464l0-1.32z M48.158,79.288l2.464,2.464l0,1.32l-2.464-2.464l0-1.32z M48.158,74.272l2.464,2.464l0,1.32l-2.464-2.464l0-1.32z M48.158,41.888l2.464,2.464l0,1.32l-2.464-2.464l0-1.32z M48.158,39.424l2.464,2.464l0,1.32l-2.464-2.464l0-1.32z M48.158,34.408l2.464,2.464l0,1.32l-2.464-2.464l0-1.32z M48.158,36.872l2.464,2.464l0,1.32l-2.464-2.464l0-1.32z M48.158,29.48l2.464,2.376l0,1.32l-2.464-2.464l0-1.232z M48.158,31.944l2.464,2.464l0,1.32l-2.464-2.464l0-1.32z M48.158,44.352l2.464,2.464l0,1.32l-2.464-2.464l0-1.32z M48.158,54.384l2.464,2.464l0,1.32l-2.464-2.464l0-1.32z M48.158,51.832l2.464,2.464l0,1.32l-2.464-2.464l0-1.32z M48.158,49.368l2.464,2.464l0,1.32l-2.464-2.464l0-1.32z M48.158,46.904l2.464,2.464l0,1.32l-2.464-2.464l0-1.32z M48.158,56.848l2.464,2.464l0,1.32l-2.464-2.464l0-1.32z M46.134,90.992l-1.848-1.848l1.32,0l1.848,1.848l-1.32,0z M41.118,90.992l-1.848-1.848l1.32,0l1.848,1.848l-1.32,0z M43.582,90.992l-1.848-1.848l1.32,0l1.848,1.848l-1.32,0z M37.422,90.992l-0.528,0l0.088-0.44z M37.246,89.584l0.176-0.44l0.704,0l1.848,1.848l-1.32,0z M54.054,87.736l0.528,1.672l-2.728-2.552l-0.088-0.528l0.968,0z M52.47,89.144l-0.176-0.792l2.64,2.64l-1.32,0l-1.848-1.848l0.704,0z M51.062,90.992l-1.848-1.848l1.32,0l1.848,1.848l-1.32,0z M48.598,90.992l-1.848-1.848l1.32,0l1.848,1.848l-1.32,0z M77.924,108.856l-3.872,0c-4.664,0-8.712-1.672-12.056-5.016c-3.168-3.168-4.928-7.48-4.928-11.968l9.328,0c0,2.376,1.144,4.576,2.904,5.984c-0.616-0.792-1.056-1.76-1.496-2.904l2.288,0c0,1.32,0.352,2.728,1.144,4.048c0.88,0.352,1.848,0.528,2.816,0.528l3.872,0c4.224,0,7.568-3.432,7.568-7.656l0-3.872l-1.496-1.496c0.088,0,0.176-0.088,0.264-0.176c0.264-0.088,0.44-0.264,0.528-0.352l0.704,0.792l0-1.144l-0.088-0.088l0.088-0.088l0-2.288c-0.792,0.704-1.496,1.32-2.464,1.936c-2.816,1.936-5.808,2.904-8.976,2.904c-2.112,0-4.312-0.44-6.512-1.408c-1.936-0.792-3.696-1.936-5.368-3.608c-1.496-1.496-2.728-3.256-3.696-5.368c-0.968-2.024-1.408-4.312-1.408-6.688l0-22.88l-3.168,0l-1.232-4.664l18.04,0l-1.232,4.664l-3.08,0l0,22.88c0,2.376,1.144,4.576,2.992,5.984l-0.088,0c-0.616-0.968-1.144-1.76-1.408-2.816l2.816,2.816c0.176,0.44,0.352,0.88,0.616,1.144c0.792,0.352,1.672,0.528,2.728,0.528c2.728,0,5.368-1.76,7.656-5.28c2.464-3.696,3.784-8.448,3.784-12.936l0-12.32l-3.08,0l-1.232-4.664l18.04,0l-1.232,4.664l-3.08,0l0,43.824c0,4.488-1.76,8.712-5.016,11.968s-7.48,5.016-11.968,5.016z M92.18,108.24l-0.792,0.616l-2.112-2.112l0.704-0.616z M92.796,107.712l-2.112-2.112l0.44-0.528c0.088,0,0.088-0.088,0.176-0.088l2.2,2.112c-0.176,0.088-0.44,0.352-0.704,0.616z M89.892,109.824l-2.112-2.112l0.792-0.528l2.112,2.112z M88.22,110.616l-2.112-2.024c0.352-0.264,0.616-0.176,0.968-0.44l2.024,2.024c-0.352,0.264-0.616,0.352-0.88,0.44z M95.172,105.16l-2.2-2.2l0.528-0.792l2.2,2.2z M94.028,106.48l-2.112-2.112l0.528-0.792l2.2,2.2c-0.264,0.352-0.44,0.616-0.616,0.704z M97.02,101.992l-2.288-2.2c0.264-0.352,0.176-0.704,0.44-0.968l2.288,2.288c-0.264,0.264-0.176,0.616-0.44,0.88z M96.228,103.664l-2.288-2.2c0.264-0.352,0.352-0.616,0.44-0.88l2.288,2.2c-0.264,0.352-0.352,0.616-0.44,0.88z M87.34,110.968l-0.968,0.264l-2.024-1.936l0.968-0.352z M97.724,100.232l-2.288-2.288l0.264-1.056l2.376,2.288c-0.088,0.44-0.264,0.792-0.352,1.056z M96.14,93.632l0-0.528l0-0.792l2.464,2.464l0,0.176c0,0.44,0,0.792-0.088,1.056z M75.196,110.088l0.088,0l1.232,0l1.848,1.848l-0.616,0l-0.704,0z M99.044,49.28l0.176,0l0.264-0.88l2.288,2.288l-0.088,0.44l-0.792,0z M66.396,107.536l0.352,0.264l0.616,0.616c-0.44-0.352-0.792-0.616-0.968-0.88z M98.604,51.304l-2.024-2.024l1.32,0l1.848,1.848l-1.144,0l0,0.176z M79.508,111.936l-1.848-1.848l1.32,0l1.848,1.848l-1.32,0z M85.404,111.496l-1.144,0.264l-1.936-1.936l1.144-0.264z M82.06,111.936l-1.936-1.848l1.232-0.176l1.936,1.936c-0.44,0.088-0.88,0.088-1.232,0.088z M75.724,111.848l-1.584-0.264l-1.672-1.76c0.616,0.088,0.88,0.176,1.496,0.176z M70.444,110.264l-1.408-1.32c0.616,0.264,1.32,0.352,1.936,0.616l1.584,1.584c-0.704-0.264-1.408-0.528-2.112-0.88z M98.604,88.616l-2.464-2.376l0-1.32l2.464,2.464l0,1.232z M98.604,63.8l-2.464-2.464l0-1.32l2.464,2.464l0,1.32z M98.604,61.248l-2.464-2.464l0-1.32l2.464,2.464l0,1.32z M98.252,98.296l-2.376-2.376l0.176-1.232l2.376,2.464c0,0.352-0.088,0.704-0.176,1.144z M98.604,66.264l-2.464-2.464l0-1.32l2.464,2.464l0,1.32z M98.604,56.32l-2.464-2.464l0-1.32l2.464,2.464l0,1.32z M102.564,47.784l-1.32-1.32l1.32,0l0.264,0.264z M98.604,68.728l-2.464-2.464l0-1.32l2.464,2.464l0,1.32z M99.748,47.432l0.264-0.968l0.088,0l2.2,2.288l-0.264,1.056z M98.604,53.768l-2.464-2.464l0-1.32l2.464,2.464l0,1.32z M98.604,58.784l-2.464-2.464l0-1.32l2.464,2.464l0,1.32z M98.604,91.08l-2.464-2.464l0-1.232l2.464,2.376l0,1.32z M98.604,86.24l-2.464-2.464l0-1.32l2.464,2.464l0,1.32z M98.604,83.688l-2.464-2.464l0-1.32l2.464,2.464l0,1.32z M98.604,93.544l-2.464-2.376l0-1.32l2.464,2.464l0,1.232z M98.604,78.76l-2.464-2.464l0-1.32l2.464,2.464l0,1.32z M98.604,73.744l-2.464-2.464l0-1.32l2.464,2.464l0,1.32z M98.604,76.208l-2.464-2.464l0-1.32l2.464,2.464l0,1.32z M98.604,71.28l-2.464-2.464l0-1.32l2.464,2.464l0,1.32z M98.604,81.224l-2.464-2.464l0-1.32l2.464,2.464l0,1.32z M75.284,89.144c0,0,0.088,0,0.176-0.088l1.848,1.848c-0.44,0-0.968,0-1.408-0.088l-1.76-1.76c0.352,0,0.704,0.088,1.144,0.088z M72.732,90.112l-1.584-1.584c0.44,0.088,0.968,0.264,1.672,0.352l1.672,1.76c-0.616-0.264-1.144-0.264-1.76-0.528z M68.772,87.824l0.616,0.176l1.408,1.408c-1.144-0.44-2.288-1.144-3.432-1.936l-0.528-0.616c0.616,0.352,1.232,0.704,1.936,0.968z M80.652,90.64l-1.936-1.936l1.056-0.264l2.024,1.936z M78.452,90.904l-1.848-1.848l1.144-0.176l1.936,1.936c-0.264,0.088-0.704,0.088-1.232,0.088z M82.412,87.472l0.792-0.528l2.112,2.024c-0.264,0.264-0.616,0.176-0.88,0.44z M82.676,90.112l-2.024-2.024c0.352-0.088,0.704-0.088,0.968-0.264l2.024,1.936c-0.352,0.264-0.704,0.264-0.968,0.352z M70.092,70.136l-2.464-2.464l0-1.32l2.464,2.464l0,1.32z M70.092,67.672l-2.464-2.464l0-1.32l2.464,2.464l0,1.32z M70.092,72.688l-2.464-2.464l0-1.32l2.464,2.464l0,1.32z M67.628,72.688l0-0.528l0-0.792l2.464,2.464l0,0.176c0,0.616,0,0.968,0.088,1.232z M73.788,46.464l0.616,0l-0.088,0.528z M70.092,65.208l-2.464-2.464l0-1.32l2.464,2.464l0,1.32z M70.092,60.192l-2.464-2.464l0-1.32l2.464,2.464l0,1.32z M71.236,47.52l2.288,2.376l-0.264,0.968l-2.376-2.288z M70.444,49.28l1.848,1.848l-1.32,0l-1.848-1.848l1.32,0z M70.092,62.656l-2.464-2.464l0-1.32l2.464,2.464l0,1.32z M72.644,46.464l1.408,1.408l-0.264,1.056l-2.376-2.376l0.088-0.088l1.144,0z M70.092,57.728l-2.464-2.464l0-1.32l2.464,2.464l0,1.32z M70.092,55.176l-2.464-2.464l0-1.32l2.464,2.464l0,1.32z M67.98,49.28l2.112,2.112l0,1.32l-2.464-2.464l0-0.968l0.352,0z"></path></svg>
<!--?xml version="1.0"?-->
<svg width="134.38px" height="20px" id="s1481040713752"><path fill="#ffffff" d="M5.05,10c-0.0933301,0-0.14-0.0466699-0.14-0.14l-0.06-3.4l-1.02,3.4c-0.0133301,0.0333301-0.0383301,0.065-0.075,0.095s-0.075,0.045-0.115,0.045l-0.8,0c-0.0466699,0-0.0866699-0.0166699-0.12-0.05s-0.0566602-0.07-0.0699902-0.11l-1.02-3.38l-0.05,3.4c0,0.0933301-0.0466699,0.14-0.14,0.14l-0.92,0c-0.0933301,0-0.14-0.0466699-0.14-0.14l0.27-6.7c0-0.0333301,0.0116699-0.065,0.035-0.095s0.0516602-0.045,0.0849902-0.045l0.99,0c0.0733301,0,0.12333,0.0466699,0.15,0.14l1.33,4.9l1.34-4.9c0.0266699-0.0933301,0.0766699-0.14,0.15-0.14l0.98,0c0.0333301,0,0.0633301,0.015,0.09,0.045s0.04,0.0616699,0.04,0.095l0.27,6.7c0,0.04-0.015,0.0733301-0.045,0.1s-0.0616699,0.04-0.095,0.04l-0.92,0z M17.25,9.9c-0.0666699,0.0666699-0.18,0.10001-0.34,0.10001l-2.53,0c-0.02,0-0.0516699-0.005-0.095-0.015s-0.0883301-0.0383301-0.135-0.085l-0.57-0.57c-0.0466699-0.0466699-0.075-0.0916699-0.085-0.135s-0.015-0.075-0.015-0.095l0-5.18c0-0.0266699,0.005-0.0616699,0.015-0.105s0.0383301-0.0883301,0.085-0.135l0.57-0.56c0.04-0.04,0.0783301-0.0666699,0.115-0.08s0.085-0.02,0.145-0.02l2.58,0c0.04,0,0.0833301,0.00666992,0.13,0.02s0.09,0.04,0.13,0.08l0.56,0.56c0.0333301,0.0333301,0.06,0.0716602,0.08,0.11499s0.03,0.0916602,0.03,0.14499l0,5.13c0,0.0666699-0.01,0.11834-0.03,0.15501s-0.0466699,0.0716699-0.08,0.105z M16.69,8.66001c0.02-0.02,0.0299902-0.0433398,0.0299902-0.0700098l0-4.11c0-0.00666992-0.00166992-0.0166699-0.005-0.03s-0.0116602-0.0266602-0.0249902-0.0399902l-0.17-0.16c-0.02-0.02-0.04-0.03-0.06-0.03l-1.51,0c-0.0266699,0-0.05,0.01-0.07,0.03l-0.17,0.16c-0.02,0.02-0.03,0.0433301-0.03,0.07l0,4.11c0,0.0266699,0.01,0.05,0.03,0.07l0.14,0.14l1.7,0z M29.03,9.9c-0.0666699,0.0666699-0.15334,0.10002-0.26001,0.10002l-3.18,0c-0.04,0-0.0733301-0.015-0.1-0.045s-0.04-0.065-0.04-0.105l0-6.69c0-0.0933301,0.0466699-0.14,0.14-0.14l3.18,0c0.0266699,0,0.0633398,0.005,0.11001,0.015s0.0966699,0.0416699,0.15,0.095l0.56,0.56c0.0733301,0.0733301,0.11,0.16,0.11,0.26l0,1.81c0,0.0533301-0.005,0.0966602-0.015,0.12999s-0.0416699,0.0766602-0.095,0.12999l-0.39,0.39l0.39,0.4c0.0533301,0.06,0.085,0.11,0.095,0.15s0.015,0.0766699,0.015,0.11l0,2c0,0.06-0.01,0.11-0.03,0.15s-0.0466699,0.0766699-0.08,0.11z M28.46,8.61002c0.0266699-0.0266699,0.04-0.0533301,0.04-0.08l0-1.25l-0.03-0.05l-0.17-0.17c-0.02-0.02-0.0466699-0.03-0.08-0.03l-1.57,0l0,1.76l1.57,0c0.02,0,0.0466699-0.01,0.08-0.03z M28.47,5.64003c0.02-0.02,0.03-0.0433301,0.03-0.07l0-1.14c0-0.0266699-0.01-0.05-0.03-0.07l-0.14-0.14l-1.68,0l0,1.61l1.59,0c0.02,0,0.04-0.01,0.06-0.03z M37.34,10c-0.0933301,0-0.14-0.0466699-0.14-0.14l0-6.7c0-0.0933301,0.0466699-0.14,0.14-0.14l0.92,0c0.0933301,0,0.14,0.0466699,0.14,0.14l0,6.7c0,0.0933301-0.0466699,0.14-0.14,0.14l-0.92,0z M46.11,10c-0.0933301,0-0.14-0.0466699-0.14-0.14l0-6.72c0-0.0333301,0.015-0.0616602,0.045-0.0849902s0.0616699-0.035,0.095-0.035l0.92,0c0.0333301,0,0.065,0.0116699,0.095,0.035s0.045,0.0516602,0.045,0.0849902l0,5.66l2.95,0c0.0933301,0,0.14,0.0466699,0.14,0.14l0,0.92c0,0.0933301-0.0466699,0.14-0.14,0.14l-4.01,0z M57.63,10c-0.0933301,0-0.14-0.0466699-0.14-0.14l0-6.7c0-0.0933301,0.0466699-0.14,0.14-0.14l3.63,0c0.0933301,0,0.14,0.0466699,0.14,0.14l0,0.92c0,0.0333301-0.0133301,0.065-0.04,0.095s-0.06,0.045-0.1,0.045l-2.57,0l0,1.69l2.03,0c0.0333301,0,0.065,0.0133301,0.095,0.04s0.045,0.06,0.045,0.1l0,0.92c0,0.04-0.015,0.0733301-0.045,0.1s-0.0616699,0.04-0.095,0.04l-2.03,0l0,1.69l2.57,0c0.0933301,0,0.14,0.0466699,0.14,0.14l0,0.92c0,0.0933301-0.0466699,0.14-0.14,0.14l-3.63,0z  M81.54,10c-0.04,0-0.0783203-0.0150098-0.11499-0.0450098s-0.0616699-0.065-0.075-0.105l-0.39-1.34l-2.23,0l-0.39,1.34c-0.0133301,0.04-0.0383301,0.075-0.075,0.105s-0.075,0.045-0.115,0.045l-0.87,0c-0.04,0-0.0783301-0.015-0.115-0.045s-0.0483398-0.065-0.0350098-0.105l1.98-6.69c0.0133301-0.0333301,0.03-0.0666602,0.05-0.0999902s0.05-0.05,0.09-0.05l1.18,0c0.0666699,0,0.11667,0.0466699,0.15,0.14l1.97,6.7c0.0133301,0.04,0.00333008,0.075-0.03,0.105s-0.07,0.045-0.11,0.045l-0.87,0z M79.84001,4.73999l-0.75,2.55l1.51,0z M89.81,10c-0.0933301,0-0.14-0.0466699-0.14-0.14l0-6.7c0-0.0933301,0.0466699-0.14,0.14-0.14l3.18,0c0.0466699,0,0.09,0.005,0.13,0.015s0.0833301,0.0383301,0.13,0.085l0.56,0.56c0.0533301,0.06,0.085,0.11167,0.095,0.155s0.015,0.0783301,0.015,0.105l0,2.57c0,0.1-0.0366699,0.18667-0.11,0.26l-0.56,0.56c-0.0333301,0.0333301-0.07,0.06-0.11,0.08s-0.09,0.03-0.15,0.03l-2.12,0l0,2.42c0,0.0933301-0.0466699,0.14-0.14,0.14l-0.92,0z M92.69,6.04c0.0133301-0.0133301,0.02-0.0266699,0.02-0.04l0-1.54c0-0.02-0.00666992-0.0366699-0.02-0.05l-0.18-0.17c-0.0133301-0.0133301-0.03-0.02-0.05-0.02l-1.59,0l0,2.01l1.59,0c0.0266699,0,0.0466699-0.00666992,0.06-0.02z M101.5,10c-0.0933301,0-0.14-0.0466699-0.14-0.14l0-6.7c0-0.0933301,0.0466699-0.14,0.14-0.14l3.18,0c0.0466699,0,0.09,0.005,0.13,0.015s0.0833301,0.0383301,0.13,0.085l0.56,0.56c0.0533301,0.06,0.085,0.11167,0.095,0.155s0.015,0.0783301,0.015,0.105l0,2.57c0,0.1-0.0366699,0.18667-0.11,0.26l-0.56,0.56c-0.0333301,0.0333301-0.07,0.06-0.11,0.08s-0.09,0.03-0.15,0.03l-2.12,0l0,2.42c0,0.0933301-0.0466699,0.14-0.14,0.14l-0.92,0z M104.38,6.04c0.0133301-0.0133301,0.02-0.0266699,0.02-0.04l0-1.54c0-0.02-0.00666992-0.0366699-0.02-0.05l-0.18-0.17c-0.0133301-0.0133301-0.03-0.02-0.05-0.02l-1.59,0l0,2.01l1.59,0c0.0266699,0,0.0466699-0.00666992,0.06-0.02z M116.75,9.9c-0.04,0.04-0.0833301,0.0666895-0.13,0.0800195s-0.09,0.02-0.13,0.02l-2.58,0c-0.0733301,0-0.125-0.00833008-0.155-0.025s-0.065-0.045-0.105-0.085l-0.57-0.56c-0.0466699-0.0466699-0.075-0.0883398-0.085-0.12501s-0.015-0.0716699-0.015-0.105l0-1.02c0-0.0333301,0.0133301-0.065,0.04-0.095s0.06-0.045,0.1-0.045l0.92,0c0.04,0,0.0733301,0.015,0.1,0.045s0.04,0.0616699,0.04,0.095l0,0.72l1.79,0c0.0133301,0,0.03-0.01,0.05-0.03l0.17-0.16c0.02-0.0133301,0.03-0.0366602,0.03-0.0699902l0-1.17c0-0.0266699-0.01-0.05-0.03-0.07l-0.16-0.16c-0.02-0.02-0.0433301-0.03-0.07-0.03l-2.08,0c-0.02,0-0.0516699-0.00666992-0.095-0.02s-0.0883301-0.0433301-0.135-0.09l-0.57-0.56c-0.04-0.04-0.0666699-0.0816699-0.08-0.125s-0.02-0.085-0.02-0.125l0-2.25c0-0.0333301,0.00666992-0.0733301,0.02-0.12s0.0433301-0.0933398,0.09-0.14001l0.56-0.56c0.0333301-0.0333301,0.065-0.0583301,0.095-0.075s0.085-0.025,0.165-0.025l2.58,0c0.04,0,0.085,0.00833008,0.135,0.025s0.0916699,0.0416699,0.125,0.075l0.56,0.56c0.0533301,0.06,0.085,0.10833,0.095,0.145s0.015,0.075,0.015,0.115l0,1.05c0,0.0933301-0.0466699,0.14-0.14,0.14l-0.92,0c-0.0933301,0-0.14-0.0466699-0.14-0.14l0-0.77l-1.76,0c-0.0266699,0-0.0533398,0.01-0.0800098,0.03l-0.17,0.16c-0.02,0.0133301-0.03,0.0366602-0.03,0.0699902l0,1.16c0,0.0266699,0.01,0.05,0.03,0.07l0.17,0.17c0.02,0.02,0.0466699,0.03,0.08,0.03l2.03,0c0.10667,0,0.19334,0.0333301,0.26001,0.1l0.56,0.56c0.0733301,0.08,0.11,0.16667,0.11,0.26l0,2.24c0,0.1-0.0366699,0.18667-0.11,0.26z"></path></svg>
</defs><g id="SvgjsG1061" transform="matrix(1,0,0,1,0,56.7369384765625)"><use id="SvgjsUse1060" xlink:href="#a1481040713752" fill="#ffffff" stroke="#ffffff" x="155" y="0"></use><use id="SvgjsUse1058" xlink:href="#t1481040713752" fill="#ffffff" x="127.04599952697754" y="31.945510059595108"></use><use id="SvgjsUse1059" xlink:href="#s1481040713752" fill="#ffffff" y="150.8715082705021" x="121.48001098632812"></use></g></svg>